<svg width="40" height="39" viewBox="0 0 40 39" fill="none" xmlns="http://www.w3.org/2000/svg">
<path d="M39.521 16.618H27.571C27.472 16.618 27.421 16.498 27.492 16.428L35.942 8.008C35.9525 7.99759 35.9608 7.9852 35.9665 7.97156C35.9722 7.95791 35.9751 7.94328 35.9751 7.9285C35.9751 7.91372 35.9722 7.89909 35.9665 7.88544C35.9608 7.8718 35.9525 7.85941 35.942 7.849L31.756 3.678C31.7351 3.65742 31.7069 3.64589 31.6775 3.64589C31.6481 3.64589 31.6199 3.65742 31.599 3.678L23.149 12.098C23.079 12.168 22.958 12.119 22.958 12.02V0.111C22.9577 0.0814694 22.9458 0.053238 22.9248 0.0324497C22.9039 0.0116614 22.8755 -1.17706e-06 22.846 0H16.926C16.8966 0 16.8683 0.0116946 16.8475 0.0325111C16.8267 0.0533277 16.815 0.081561 16.815 0.111V12.021C16.815 12.119 16.695 12.169 16.625 12.099L8.17499 3.678C8.15388 3.65736 8.12552 3.6458 8.09599 3.6458C8.06647 3.6458 8.03811 3.65736 8.01699 3.678L3.82999 7.849C3.80935 7.87011 3.79779 7.89847 3.79779 7.928C3.79779 7.95753 3.80935 7.98589 3.82999 8.007L12.438 16.585C12.4483 16.5955 12.4606 16.6038 12.4742 16.6095C12.4877 16.6152 12.5023 16.6181 12.517 16.618H22.845C22.907 16.618 22.957 16.668 22.957 16.728V27.023C22.957 27.053 22.969 27.081 22.99 27.102L31.598 35.68C31.6083 35.6903 31.6205 35.6985 31.634 35.7041C31.6475 35.7097 31.6619 35.7125 31.6765 35.7125C31.6911 35.7125 31.7055 35.7097 31.719 35.7041C31.7324 35.6985 31.7447 35.6903 31.755 35.68L35.941 31.509C35.9619 31.488 35.9736 31.4596 35.9736 31.43C35.9736 31.4004 35.9619 31.372 35.941 31.351L27.491 22.931C27.4752 22.9154 27.4644 22.8955 27.4601 22.8737C27.4558 22.8519 27.458 22.8294 27.4666 22.8089C27.4753 22.7885 27.4898 22.7711 27.5084 22.7589C27.527 22.7468 27.5488 22.7406 27.571 22.741H39.521C39.5356 22.741 39.5501 22.7381 39.5636 22.7324C39.577 22.7268 39.5893 22.7185 39.5995 22.7081C39.6097 22.6977 39.6178 22.6853 39.6232 22.6717C39.6286 22.6581 39.6313 22.6436 39.631 22.629V16.729C39.631 16.6997 39.6194 16.6716 39.5988 16.6509C39.5782 16.6301 39.5503 16.6183 39.521 16.618Z" fill="white"/>
<path d="M0.648003 17.88H21.545C21.626 17.88 21.692 17.945 21.692 18.027V38.853C21.6917 38.8919 21.6762 38.9291 21.6487 38.9567C21.6211 38.9842 21.5839 38.9997 21.545 39H16.196C16.1569 39 16.1194 38.9845 16.0917 38.957C16.064 38.9295 16.0483 38.8921 16.048 38.853V28.643C16.0479 28.6138 16.0393 28.5853 16.0231 28.5611C16.0069 28.5368 15.9839 28.5179 15.9569 28.5067C15.93 28.4955 15.9004 28.4925 15.8717 28.498C15.8431 28.5036 15.8168 28.5175 15.796 28.538L8.418 35.91C8.39009 35.9377 8.35235 35.9533 8.313 35.9533C8.27366 35.9533 8.23592 35.9377 8.208 35.91L4.008 31.781C3.99422 31.7674 3.98327 31.7512 3.97579 31.7334C3.96832 31.7155 3.96447 31.6964 3.96447 31.677C3.96447 31.6577 3.96832 31.6385 3.97579 31.6206C3.98327 31.6028 3.99422 31.5866 4.008 31.573L11.735 23.774C11.7553 23.7533 11.769 23.7271 11.7745 23.6987C11.7799 23.6702 11.7769 23.6408 11.7657 23.6141C11.7544 23.5874 11.7356 23.5646 11.7114 23.5485C11.6873 23.5325 11.659 23.524 11.63 23.524H0.648003C0.628531 23.5241 0.609226 23.5204 0.591209 23.513C0.573193 23.5056 0.556825 23.4947 0.543055 23.481C0.529286 23.4672 0.518389 23.4508 0.510999 23.4328C0.503608 23.4148 0.499871 23.3955 0.500003 23.376V18.026C0.500003 17.946 0.566003 17.88 0.648003 17.88Z" fill="#0000DF"/>
</svg>
